<?xml version="1.0" encoding="iso-8859-1"?>
<!-- Generator: Adobe Illustrator 18.0.0, SVG Export Plug-In . SVG Version: 6.00 Build 0)  -->
<!DOCTYPE svg PUBLIC "-//W3C//DTD SVG 1.1//EN" "http://www.w3.org/Graphics/SVG/1.1/DTD/svg11.dtd">
<svg version="1.1" id="Capa_1" xmlns="http://www.w3.org/2000/svg" xmlns:xlink="http://www.w3.org/1999/xlink" x="0px" y="0px"
	 viewBox="0 0 297 297" style="enable-background:new 0 0 297 297;" xml:space="preserve">
<g>
	<path d="M233.953,5.571c-2.712-2.007-6.248-2.529-9.423-1.387c-0.879,0.314-21.731,7.91-41.406,24.09
		c-27.197,22.366-38.992,50.21-34.107,80.521c1.026,6.367,2.498,12.748,4.057,19.504c5.957,25.823,12.117,52.527-7.327,78.893
		c-15.598,21.153-37.799,29.032-57.206,31.383c-0.005-0.021-0.006-0.045-0.011-0.066c-6.047-28.112-23.956-38.366-37.916-42.019
		c-14.203-3.716-26.68-1.246-28.055-0.953c-4.921,1.052-8.317,5.565-7.965,10.587c1.168,16.633,6.902,28.143,13.086,35.872
		c-8.486,4.064-17.905,11.252-26.069,23.928c-2.724,4.226-1.924,9.81,1.876,13.103c1.064,0.921,10.801,9.107,25.034,12.709
		c3.916,0.991,8.349,1.678,13.119,1.678c11.962-0.001,26.032-4.328,39.288-19.018c18.99,8.078,39.438,12.264,60.484,12.264
		c23.839,0,47.713-5.57,69.04-16.107c22.049-10.893,41.474-27.189,56.18-47.128C317.577,154.332,302.917,56.604,233.953,5.571z
		 M267.86,179.516c-7.103-0.482-12.741-6.543-12.741-13.94c0-5.578-4.523-10.102-10.101-10.102s-10.102,4.523-10.102,10.102
		c0,7.713-6.124,13.988-13.653,13.988c-7.527,0-13.652-6.275-13.652-13.988c0-5.578-4.523-10.102-10.101-10.102
		c-5.579,0-10.102,4.523-10.102,10.102c0,6.036-3.759,11.178-9,13.133c2.01-16.038-0.482-31.477-3.523-45.518
		c5.681,2.233,12.592,4.435,20.526,5.999c6.611,1.303,14.372,2.236,23.053,2.236c16.625,0,36.611-3.428,58.283-14.227
		C277.243,144.823,274.337,162.619,267.86,179.516z M168.962,108.06c-3.707-22.997,5.242-46.126,26.597-63.854
		c11.669-9.689,24.136-15.958,30.842-18.948c25.906,20.871,42.2,49.623,48.009,80.295c-24.41,13.944-49.364,18.649-74.203,13.987
		C183.423,116.387,171.661,109.758,168.962,108.06z M52.197,236.975L52.197,236.975C52.187,236.975,52.211,236.977,52.197,236.975
		c-2.141-1.112-11.865-6.941-15.875-22.387c10.307,0.35,25.728,4.47,31.571,24.673C61.271,238.911,52.233,236.983,52.197,236.975z
		 M61.983,264.748c-14.145,12.366-28.559,8.652-37.271,4.223c12.126-12.885,24.686-11.969,25.299-11.913L61.983,264.748z
		 M94.563,258.082c13.91-2.139,30.07-6.961,44.923-17.124c2.212,4.655,5.585,8.705,9.744,11.575
		c5.523,3.808,11.957,5.328,18.165,4.789c0.602,2.135,1.462,4.157,2.53,6.059c-9.298,2.018-18.851,3.074-28.513,3.074
		C125.218,266.455,109.428,263.607,94.563,258.082z M190.417,256.478c-1.663-1.148-3.382-3.374-3.745-5.368
		c-0.366-2.002,0.07-4.029,1.229-5.707c1.21-1.753,1.789-3.755,1.787-5.734c-0.002-3.206-1.526-6.357-4.365-8.316
		c-4.591-3.168-10.882-2.014-14.051,2.578c-2.387,3.462-7.129,4.346-10.572,1.973c-1.789-1.233-3.167-3.355-3.687-5.677
		c-0.284-1.267-0.552-4.052,0.847-6.079c1.339-1.587,2.871-3.238,4.145-4.967c4.786-6.489,8.356-12.991,10.97-19.454
		c9.247,0,18.418-3.723,24.535-9.812c6.115,6.089,14.507,9.852,23.753,9.852c9.246,0,17.638-3.763,23.754-9.851
		c3.854,3.836,8.612,6.746,13.918,8.376c-2.572,4.488-5.419,8.879-8.562,13.141C235.144,232.081,213.805,247.24,190.417,256.478z"/>
	<path d="M209.976,76.346c2.656,0,5.263-1.082,7.141-2.961c1.88-1.888,2.96-4.484,2.96-7.141c0-2.656-1.08-5.263-2.96-7.142
		c-1.878-1.889-4.484-2.959-7.141-2.959c-2.656,0-5.263,1.07-7.142,2.959c-1.879,1.879-2.959,4.475-2.959,7.142
		c0,2.656,1.08,5.263,2.959,7.141C204.713,75.264,207.32,76.346,209.976,76.346z"/>
</g>
<g>
</g>
<g>
</g>
<g>
</g>
<g>
</g>
<g>
</g>
<g>
</g>
<g>
</g>
<g>
</g>
<g>
</g>
<g>
</g>
<g>
</g>
<g>
</g>
<g>
</g>
<g>
</g>
<g>
</g>
</svg>
