<?xml version="1.0" encoding="iso-8859-1"?>
<!-- Generator: Adobe Illustrator 18.0.0, SVG Export Plug-In . SVG Version: 6.00 Build 0)  -->
<!DOCTYPE svg PUBLIC "-//W3C//DTD SVG 1.1//EN" "http://www.w3.org/Graphics/SVG/1.1/DTD/svg11.dtd">
<svg version="1.1" id="Capa_1" xmlns="http://www.w3.org/2000/svg" xmlns:xlink="http://www.w3.org/1999/xlink" x="0px" y="0px"
	 viewBox="0 0 296.999 296.999" style="enable-background:new 0 0 296.999 296.999;" xml:space="preserve">
<g>
	<path d="M292.301,105.385L153.799,18.797c-3.241-2.027-7.358-2.027-10.601,0L4.698,105.385c-3.066,1.916-4.858,5.34-4.686,8.953
		c0.171,3.611,2.279,6.852,5.514,8.469c20.36,10.184,41.684,17.939,63.819,23.252c0.943,20.574,9.2,46.596,21.58,67.533
		c6.094,10.305,12.785,18.869,19.876,25.545v30.588c0,5.521,4.478,9.998,9.999,9.998c5.522,0,9.999-4.477,9.999-9.998v-17.244
		c5.805,2.393,11.733,3.627,17.701,3.627c5.968,0,11.896-1.234,17.701-3.627v17.244c0,5.521,4.477,9.998,9.999,9.998
		c5.521,0,9.999-4.477,9.999-9.998v-30.588c7.091-6.676,13.782-15.24,19.876-25.545c12.684-21.451,21.02-48.225,21.617-69.023
		c37.936-9.023,62.177-20.959,63.781-21.762c3.234-1.617,5.344-4.855,5.515-8.469C297.16,110.727,295.368,107.301,292.301,105.385z
		 M148.5,236.11c-5.751,0-11.751-2.213-17.701-6.383v-15.842c0-1.893,1.539-3.432,3.431-3.432h28.54
		c1.893,0,3.432,1.539,3.432,3.432v15.842C160.251,233.897,154.251,236.11,148.5,236.11z M188.86,203.414
		c-1.069,1.809-2.158,3.545-3.263,5.217c-2.393-10.396-11.716-18.176-22.828-18.176h-28.54c-11.112,0-20.436,7.779-22.827,18.176
		c-1.104-1.672-2.193-3.408-3.263-5.217c-9.829-16.625-16.663-36.623-18.426-53.195c17.448,2.947,35.355,4.432,53.656,4.432
		c23.301,0,44.931-2.381,64.064-5.842C205.919,165.645,198.968,186.317,188.86,203.414z M143.37,134.652
		c-39.732,0-77.447-7.436-112.366-22.129L148.5,39.069l116.85,73.053C242.012,120.922,197.006,134.652,143.37,134.652z"/>
	<path d="M123.322,166.094l-20.528-2.221c0,0,7.954,12.35,19.656,13.158c2.299,0.158,6.262,0,6.262-5.074
		C128.712,166.885,123.322,166.094,123.322,166.094z"/>
	<path d="M174.549,177.031c11.702-0.809,19.656-13.158,19.656-13.158l-20.528,2.221c0,0-5.39,0.791-5.39,5.863
		C168.288,177.031,172.251,177.19,174.549,177.031z"/>
</g>
<g>
</g>
<g>
</g>
<g>
</g>
<g>
</g>
<g>
</g>
<g>
</g>
<g>
</g>
<g>
</g>
<g>
</g>
<g>
</g>
<g>
</g>
<g>
</g>
<g>
</g>
<g>
</g>
<g>
</g>
</svg>
