<?xml version="1.0" encoding="iso-8859-1"?>
<!-- Generator: Adobe Illustrator 18.0.0, SVG Export Plug-In . SVG Version: 6.00 Build 0)  -->
<!DOCTYPE svg PUBLIC "-//W3C//DTD SVG 1.1//EN" "http://www.w3.org/Graphics/SVG/1.1/DTD/svg11.dtd">
<svg version="1.1" id="Capa_1" xmlns="http://www.w3.org/2000/svg" xmlns:xlink="http://www.w3.org/1999/xlink" x="0px" y="0px"
	 viewBox="0 0 297 297" style="enable-background:new 0 0 297 297;" xml:space="preserve">
<g>
	<path d="M243.195,127.932c-22.338-15.439-52.117-24.436-84.527-25.676c0.739-16.251-2.108-45.418-18.021-95.396
		c-1.651-5.182-7.189-8.042-12.372-6.395c-5.179,1.649-8.039,7.188-6.394,12.368c1.363,4.28,2.617,8.382,3.78,12.328
		c-5.441-4.963-12.096-9.278-20.236-12.262c-4.176-1.531-9.551-2.275-16.433-2.275c-25.618,0-66.257,10.525-67.974,10.974
		c-3.125,0.816-5.651,3.111-6.761,6.144c-1.11,3.033-0.661,6.418,1.2,9.057c6.295,8.927,38.72,53.828,58.916,61.229
		c6.758,2.479,13.821,3.735,20.991,3.735c18.69,0,34.303-8.479,43.186-14.641c0.542,6.6,0.537,11.63,0.318,15.345
		c-30.733,1.844-58.871,10.713-80.214,25.465c-25.89,17.896-40.147,43.328-40.147,71.614c0,35.175,13.676,61.292,40.646,77.628
		C81.18,290.515,111.199,297,150.926,297c39.727,0,69.746-6.485,91.772-19.826c26.969-16.336,40.644-42.453,40.644-77.628
		C283.342,171.259,269.084,145.827,243.195,127.932z M95.365,82.072c-4.851,0-9.631-0.851-14.214-2.532
		c-8.693-3.186-26.814-23.84-40.895-42.261c13.7-3.017,34.375-6.964,48.735-6.964c5.856,0,8.563,0.672,9.655,1.072
		c20.532,7.525,27.911,28.652,30.273,38.401C122.735,74.328,110.027,82.072,95.365,82.072z M232.497,260.332
		c-18.6,11.266-46.044,16.978-81.571,16.978c-35.527,0-62.972-5.712-81.571-16.978c-20.965-12.698-31.156-32.582-31.156-60.786
		c0-27.72,17.214-45.435,31.653-55.416c15.799-10.921,36.166-18.113,58.782-20.961c-2.169,1.806-3.552,4.525-3.552,7.568
		c0,5.436,4.408,9.845,9.846,9.845c4.961,0,11.064-1.557,16.121-5.221c5.057,3.664,11.16,5.221,16.121,5.221
		c5.438,0,9.846-4.408,9.846-9.845c0-3.026-1.368-5.731-3.518-7.536c22.505,2.871,42.768,10.053,58.501,20.928
		c14.44,9.982,31.652,27.697,31.652,55.417C263.651,227.75,253.46,247.634,232.497,260.332z"/>
	<path d="M232.146,169.627c-2.59,0-5.13,1.053-6.961,2.884c-1.832,1.832-2.885,4.372-2.885,6.961c0,2.589,1.053,5.129,2.885,6.96
		c1.831,1.831,4.371,2.885,6.961,2.885c2.589,0,5.129-1.054,6.96-2.885c1.841-1.831,2.885-4.371,2.885-6.96
		c0-2.589-1.044-5.129-2.885-6.961C237.274,170.68,234.744,169.627,232.146,169.627z"/>
	<path d="M209.501,179.472c0-2.589-1.044-5.129-2.885-6.961c-1.831-1.831-4.361-2.884-6.96-2.884c-2.589,0-5.129,1.053-6.961,2.884
		c-1.831,1.832-2.884,4.372-2.884,6.961c0,2.589,1.053,5.129,2.884,6.96c1.842,1.831,4.372,2.885,6.961,2.885
		c2.589,0,5.129-1.054,6.96-2.885C208.457,184.601,209.501,182.061,209.501,179.472z"/>
	<path d="M215.9,202.115c-2.589,0-5.129,1.053-6.961,2.885c-1.831,1.831-2.884,4.371-2.884,6.961c0,2.589,1.053,5.129,2.884,6.96
		c1.842,1.831,4.372,2.885,6.961,2.885c2.6,0,5.13-1.054,6.96-2.885c1.841-1.831,2.886-4.371,2.886-6.96
		c0-2.59-1.045-5.13-2.886-6.961C221.03,203.168,218.5,202.115,215.9,202.115z"/>
</g>
<g>
</g>
<g>
</g>
<g>
</g>
<g>
</g>
<g>
</g>
<g>
</g>
<g>
</g>
<g>
</g>
<g>
</g>
<g>
</g>
<g>
</g>
<g>
</g>
<g>
</g>
<g>
</g>
<g>
</g>
</svg>
